<?xml version="1.0" encoding="utf-8"?>
<!-- Generator: Adobe Illustrator 12.0.1, SVG Export Plug-In . SVG Version: 6.00 Build 51448)  -->
<!DOCTYPE svg PUBLIC "-//W3C//DTD SVG 1.0//EN" "http://www.w3.org/TR/2001/REC-SVG-20010904/DTD/svg10.dtd" [
	<!ENTITY ns_svg "http://www.w3.org/2000/svg">
	<!ENTITY ns_xlink "http://www.w3.org/1999/xlink">
]>
<svg  version="1.0" id="Ebene_1" xmlns="&ns_svg;" xmlns:xlink="&ns_xlink;" width="175.748" height="38.786"
	 viewBox="0 0 175.748 38.786" overflow="visible" enable-background="new 0 0 175.748 38.786" xml:space="preserve">
<polygon fill="#FECC00" points="175.748,0 175.748,38.786 0,38.786 0,0 175.748,0 175.748,0 "/>
<path fill="#D50029" d="M56.665,16.206c-0.768,1.04-2.053,2.848-2.835,3.904c-0.397,0.537-1.114,1.512,1.263,1.512
	c2.515,0,12.515,0,12.515,0s2.017-2.744,3.708-5.039c2.3-3.122,0.199-9.618-8.024-9.618c-7.36,0-32.384,0-32.384,0l-5.615,7.629
	c0,0,29.109,0,30.603,0C57.441,14.594,57.42,15.182,56.665,16.206z M47.471,23.504c-2.377,0-1.66-0.977-1.263-1.514
	c0.782-1.056,2.088-2.845,2.856-3.885c0.756-1.024,0.776-1.612-0.771-1.612c-1.493,0-13.996,0-13.996,0L23.02,31.819
	c0,0,20.141,0,27.501,0c9.083,0,14.14-6.178,15.699-8.314C66.22,23.504,49.985,23.504,47.471,23.504z M65.361,31.819h16.133
	l6.116-8.316l-16.131,0.002C71.474,23.504,65.361,31.819,65.361,31.819z M106.986,6.965l-6.188,8.405h-7.2l6.185-8.405H83.655
	L72.865,21.622h39.46l10.787-14.657H106.986z M88.694,31.819h16.127l6.119-8.314H94.813C94.807,23.504,88.694,31.819,88.694,31.819z
	 M0,26.784v1.766h22.468l1.298-1.766H0z M26.181,23.504H0v1.764h24.88L26.181,23.504z M0,31.819h20.061l1.292-1.756H0V31.819z
	 M152.072,28.549h23.676v-1.766h-22.376L152.072,28.549z M149.667,31.819h26.081v-1.756h-24.79L149.667,31.819z M155.783,23.504
	l-1.297,1.766h21.262v-1.766H155.783z M134.659,21.622l10.789-14.657h-17.081c-0.006,0-10.797,14.657-10.797,14.657H134.659z
	 M116.187,23.504c0,0-1.179,1.611-1.752,2.387c-2.025,2.736-0.234,5.928,6.376,5.928c7.636,0,25.901,0,25.901,0l6.119-8.314H116.187
	z"/>
</svg>
